# xmcd
#
# Track frame offsets: 
#        150
#        8513
#        20436
#        30798
#        42086
#        53104
#        66026
#        77984
#        92797
#        102183
#        115423
#        133139
#        147178
#        158749
#        171953
#        181962
#        200441
#        211765
#        224017
#        237739
#
# Disc length: 3319 seconds
#
# Revision: 0
# Processed by: cddbd v1.5.2PL0 Copyright (c) Steve Scherf et al.
# Submitted via: ExactAudioCopy v1.0b1
#
DISCID=130cf514
DTITLE=Johnny Paycheck - Finest Music Collection: Some Kind Of Rose
DYEAR=2016
DGENRE=Country
TTITLE0=Some Kind Of Rose
TTITLE1=I'm Not Looking Back Anymore
TTITLE2=Who Needs Your Love
TTITLE3=The Creeks Will Still Be Running
TTITLE4=Greater Love Hath No Man
TTITLE5=Forever Ended Yesterday
TTITLE6=Something About You I Love
TTITLE7=Someone To Give My Love To
TTITLE8=Mr. Lovemaker
TTITLE9=Song And Dance Man
TTITLE10=Come Home To My Heart
TTITLE11=I Feel Like Crying
TTITLE12=Make Me One More Memory
TTITLE13=I Wanna Talk About Me
TTITLE14=Sunny Side Of The Mountain
TTITLE15=Sunday Morning Coming Down
TTITLE16=Please Release Me
TTITLE17=Close Up the Honky-Tonks
TTITLE18=Almost Persuaded
TTITLE19=Heartaches by the Number
EXTD=
EXTT0=
EXTT1=
EXTT2=
EXTT3=
EXTT4=
EXTT5=
EXTT6=
EXTT7=
EXTT8=
EXTT9=
EXTT10=
EXTT11=
EXTT12=
EXTT13=
EXTT14=
EXTT15=
EXTT16=
EXTT17=
EXTT18=
EXTT19=
PLAYORDER=
